<svg width="81" height="63" viewBox="0 0 81 63" fill="none" xmlns="http://www.w3.org/2000/svg">
<path d="M23.5257 27.756C23.2739 27.5057 22.9333 27.3652 22.5783 27.3652C22.2233 27.3652 21.8827 27.5057 21.631 27.756L15.0063 34.3807C14.881 34.5051 14.7814 34.6529 14.7133 34.8158C14.6452 34.9787 14.6098 35.1534 14.6091 35.33C14.6085 35.5065 14.6427 35.6815 14.7097 35.8449C14.7767 36.0082 14.8752 36.1568 14.9996 36.2821C15.124 36.4074 15.2718 36.5069 15.4347 36.5751C15.5976 36.6432 15.7723 36.6786 15.9489 36.6792C16.1254 36.6799 16.3004 36.6457 16.4638 36.5787C16.6271 36.5117 16.7757 36.4132 16.901 36.2888L23.5257 29.6507C23.7759 29.3989 23.9164 29.0583 23.9164 28.7033C23.9164 28.3483 23.7759 28.0078 23.5257 27.756Z" fill="#1C60C4"/>
<path d="M34.5175 14.6007L31.9375 17.1673C31.6872 17.419 31.5468 17.7596 31.5468 18.1146C31.5468 18.4696 31.6872 18.8102 31.9375 19.062C32.1893 19.3122 32.5298 19.4527 32.8848 19.4527C33.2398 19.4527 33.5804 19.3122 33.8322 19.062L36.4256 16.5626C36.6787 16.3096 36.8208 15.9664 36.8208 15.6085C36.8208 15.2507 36.6787 14.9075 36.4256 14.6545C36.1726 14.4014 35.8294 14.2593 35.4716 14.2593C35.1137 14.2593 34.7705 14.4014 34.5175 14.6545V14.6007Z" fill="#1C60C4"/>
<path d="M49.5943 8.93009C49.7619 8.98701 49.9392 9.01025 50.1158 8.99848C50.2924 8.9867 50.465 8.94014 50.6235 8.86148C50.7821 8.78281 50.9236 8.67359 51.0398 8.54009C51.1561 8.40658 51.2448 8.25142 51.3009 8.08353C51.3578 7.91591 51.381 7.7387 51.3693 7.56208C51.3575 7.38545 51.3109 7.21289 51.2323 7.05431C51.1536 6.89573 51.0444 6.75426 50.9109 6.63802C50.7774 6.52178 50.6222 6.43306 50.4543 6.37697C48.7276 5.78167 46.8678 5.68657 45.0894 6.10264C43.311 6.51871 41.6865 7.429 40.4031 8.72853L38.2262 10.9054C37.9759 11.1572 37.8354 11.4977 37.8354 11.8527C37.8354 12.2077 37.9759 12.5483 38.2262 12.8001C38.478 13.0504 38.8185 13.1908 39.1735 13.1908C39.5285 13.1908 39.8691 13.0504 40.1209 12.8001L42.3112 10.6232C43.2428 9.6842 44.4205 9.02717 45.7089 8.72766C46.9973 8.42814 48.344 8.49831 49.5943 8.93009Z" fill="#1C60C4"/>
<path d="M65.6925 32.6875H50.9113L58.2213 25.391C59.6445 24.0491 60.7839 22.4352 61.5721 20.6449C62.3603 18.8547 62.7813 16.9245 62.81 14.9686C62.8387 13.0127 62.4747 11.071 61.7394 9.25834C61.0042 7.44571 59.9126 5.79905 58.5295 4.41589C57.1463 3.03273 55.4997 1.94119 53.687 1.20593C51.8744 0.470668 49.9326 0.106626 47.9768 0.135367C46.0209 0.164108 44.0907 0.585046 42.3004 1.37325C40.5102 2.16146 38.8963 3.30091 37.5544 4.72411L21.3488 20.9297L5.1297 37.1354C3.08685 39.18 1.69587 41.7842 1.13249 44.619C0.569111 47.4539 0.85862 50.3921 1.96444 53.0624C3.07026 55.7328 4.94276 58.0155 7.34537 59.622C9.74797 61.2286 12.5729 62.087 15.4631 62.0888C15.9974 62.0846 16.5311 62.0532 17.0622 61.9947C17.9797 62.1642 18.9107 62.2497 19.8438 62.25H65.6925C69.5689 62.2465 73.2855 60.705 76.0265 57.964C78.7675 55.223 80.309 51.5064 80.3125 47.63V47.3076C80.309 43.4312 78.7675 39.7146 76.0265 36.9736C73.2855 34.2326 69.5689 32.6911 65.6925 32.6875ZM39.4491 6.6188C40.5564 5.51149 41.871 4.63312 43.3177 4.03385C44.7645 3.43458 46.3151 3.12614 47.8811 3.12614C49.4471 3.12614 50.9977 3.43458 52.4445 4.03385C53.8913 4.63312 55.2058 5.51149 56.3131 6.6188C57.4204 7.72611 58.2988 9.04068 58.8981 10.4874C59.4974 11.9342 59.8058 13.4849 59.8058 15.0508C59.8058 16.6168 59.4974 18.1674 58.8981 19.6142C58.2988 21.061 57.4204 22.3756 56.3131 23.4829L46.7188 33.0772L41.7334 38.0625L41.0616 38.7479L24.1975 21.9375L39.4491 6.6188ZM7.03782 55.9075C5.92943 54.7995 5.05018 53.4839 4.45031 52.036C3.85043 50.588 3.54168 49.0361 3.54168 47.4688C3.54168 45.9015 3.85043 44.3496 4.45031 42.9016C5.05018 41.4537 5.92943 40.1381 7.03782 39.0301L22.2894 23.7785L39.1669 40.6425L23.875 55.9075C22.7681 57.0155 21.4536 57.8945 20.0068 58.4942C18.56 59.0939 17.0092 59.4025 15.443 59.4025C13.8768 59.4025 12.326 59.0939 10.8791 58.4942C9.43233 57.8945 8.11788 57.0155 7.01095 55.9075H7.03782ZM25.8503 57.8022L41.3438 42.2551V59.5625H23.6734C24.4368 59.0408 25.1518 58.4516 25.81 57.8022H25.8503ZM77.625 47.63C77.6215 50.7937 76.3631 53.8267 74.1261 56.0637C71.8891 58.3007 68.8561 59.559 65.6925 59.5625H44.0313V39.5676L48.2238 35.375H65.6925C68.8561 35.3786 71.8891 36.6369 74.1261 38.8739C76.3631 41.1109 77.6215 44.1439 77.625 47.3076V47.63Z" fill="#1C60C4"/>
<path d="M64.1875 38.0625H56.125C55.7686 38.0625 55.4268 38.2041 55.1748 38.4561C54.9228 38.7081 54.7812 39.0499 54.7812 39.4062C54.7812 39.7626 54.9228 40.1044 55.1748 40.3564C55.4268 40.6084 55.7686 40.75 56.125 40.75H64.1875C64.5439 40.75 64.8857 40.6084 65.1377 40.3564C65.3897 40.1044 65.5312 39.7626 65.5312 39.4062C65.5312 39.0499 65.3897 38.7081 65.1377 38.4561C64.8857 38.2041 64.5439 38.0625 64.1875 38.0625Z" fill="#1C60C4"/>
</svg>
