<svg width="13" height="13" viewBox="0 0 13 13" fill="none" xmlns="http://www.w3.org/2000/svg">
<path d="M2.90469 13H0.361719V4.82422H2.90469V13ZM1.61953 3.73047C0.826562 3.73047 0.170312 3.04688 0.170312 2.22656C0.170312 1.43359 0.826562 0.777344 1.61953 0.777344C2.43984 0.777344 3.09609 1.43359 3.09609 2.22656C3.09609 3.04688 2.43984 3.73047 1.61953 3.73047ZM12.393 13H9.87734V9.03516C9.87734 8.07812 9.85 6.875 8.5375 6.875C7.225 6.875 7.03359 7.88672 7.03359 8.95312V13H4.49062V4.82422H6.92422V5.94531H6.95156C7.30703 5.31641 8.12734 4.63281 9.35781 4.63281C11.9281 4.63281 12.4203 6.32812 12.4203 8.51562V13H12.393Z" fill="white"/>
</svg>
