<svg width="87" height="87" viewBox="0 0 87 87" fill="none" xmlns="http://www.w3.org/2000/svg">
<g clip-path="url(#clip0_28_342)">
<path d="M73.5953 65.8777H65.5221C64.198 65.8777 64.198 62.8386 65.5221 62.8386H73.5953L76.2545 11.1738H54.221C54.4251 13.0342 54.3317 14.9097 54.412 16.7744C54.7203 23.9272 55.1045 31.0756 55.352 38.2479C55.3954 39.4896 55.9121 42.7913 55.3694 43.7573C54.5531 45.2139 52.7145 44.4368 52.5104 42.609C51.9547 37.6183 52.1805 31.7529 51.9482 26.645C51.6877 20.8924 51.3664 15.1225 51.1884 9.35901C51.0712 5.57967 49.9901 1.41175 55.0763 0.53692C61.5843 0.951541 68.7892 -0.0231388 75.2147 0.528242C79.2198 0.871226 79.5628 4.00802 79.489 7.28591C79.0787 25.8809 77.1511 44.5323 76.6236 63.1143C76.5172 66.8827 77.1359 72.3097 76.5845 75.8025C76.3045 77.5695 74.4875 79.304 72.7205 79.5363C71.177 79.7382 65.6915 79.7751 64.2001 79.5406C62.5916 79.2888 62.5026 76.9986 64.0395 76.5536C66.5989 76.2041 69.8767 76.8879 72.3449 76.5015C72.7704 76.4342 73.591 75.8655 73.591 75.4682V65.8755L73.5953 65.8777ZM76.2545 8.13468C76.4608 6.80616 77.0425 3.8756 75.1995 3.58688L55.4519 3.57169C54.9851 3.4588 54.0322 4.25983 54.0322 4.62018V8.13468H76.2567H76.2545Z" fill="#1C60C4"/>
<path d="M21.9306 14.2127C24.0427 13.9523 26.2331 14.5579 26.4892 16.9675C26.6434 18.4089 26.6737 22.579 26.4436 23.9509C26.2135 25.3228 24.8459 26.4039 23.4588 26.3779L23.4762 30.0487C23.5565 30.2809 25.1954 30.9148 25.5992 31.1558C28.7425 33.0335 31.2454 36.0183 32.1333 39.6283C32.4806 41.0437 33.3402 44.5257 31.1412 44.619C29.0812 44.7058 29.5848 42.0792 29.2526 40.6095C28.2562 36.192 24.2381 32.8186 19.7446 32.4517C11.9189 31.8113 4.97453 33.4069 3.70028 42.2333L3.78277 72.9152C5.27411 78.2467 11.5998 76.128 15.7677 76.5057C17.9732 76.7054 17.9754 79.3646 15.7677 79.5622C13.4688 79.7684 7.48614 79.7901 5.46731 79.0173C2.78638 77.9905 0.973771 75.4507 0.661177 72.6178C1.13875 62.7277 0.0164534 52.2298 0.648153 42.4113C0.899965 38.5104 2.75599 34.8049 5.8016 32.3692C7.00856 31.4054 8.44128 30.841 9.74376 30.0443L9.76547 26.3779C8.37833 26.4039 7.01074 25.3228 6.78063 23.9509C6.55053 22.579 6.58092 18.4089 6.73505 16.9675C6.99337 14.5579 9.18153 13.9523 11.2937 14.2127V4.99992C11.2937 4.82843 11.7691 3.57589 11.8972 3.32407C13.7945 -0.372781 19.4277 -0.377122 21.3249 3.32407C21.4552 3.57589 21.9284 4.82843 21.9284 4.99992V14.2127H21.9306ZM18.8915 14.2127V5.37981C18.8915 4.51584 17.411 3.53898 16.5231 3.5672C15.7156 3.59325 14.3328 4.59616 14.3328 5.37981V14.2127H18.8915ZM23.4501 17.2519H9.77415V23.3301H23.4501V17.2519ZM20.411 26.3692H12.8133V29.4083H20.411V26.3692Z" fill="#1C60C4"/>
<path d="M21.3119 47.6885L58.504 47.6343C60.0518 47.682 61.2935 48.8738 61.4411 50.3955C61.0439 57.9672 61.9686 66.0686 61.4498 73.5774C61.2175 76.9378 59.0163 79.2431 55.6538 79.5579C45.5943 78.9523 34.6319 80.3416 24.6788 79.5579C21.6267 79.3169 19.3213 77.1787 18.8936 74.1353C19.3951 66.5375 18.2185 58.0693 18.8828 50.5757C19.0152 49.0887 19.8488 48.0381 21.3097 47.6842L21.3119 47.6885ZM58.3998 50.6821H21.9306V56.7603H58.3998V50.6821ZM58.3998 59.7994H21.9306V74.1396C21.9306 75.0557 23.6607 76.6122 24.6853 76.5145C34.6449 75.9566 45.412 77.2569 55.2761 76.521C56.3723 76.4385 57.2884 76.1454 57.9201 75.1751C58.0178 75.0253 58.4042 74.2178 58.4042 74.1396V59.7994H58.3998Z" fill="#1C60C4"/>
<path d="M70.4998 22.0407C73.0678 21.2723 72.4991 25.3034 72.4622 26.8512C72.3016 33.661 71.6785 40.5554 71.316 47.3587C71.1576 50.3239 71.366 53.9665 70.9231 56.8428C70.7494 57.9673 69.5295 58.4123 68.5808 57.8761C67.6908 57.3725 67.8601 56.0331 67.8862 55.1366C68.0989 48.2487 68.6872 41.3347 69.041 34.449C69.2147 31.0712 69.0801 27.3201 69.4166 23.9966C69.4839 23.328 69.7704 22.2556 70.4976 22.0386L70.4998 22.0407Z" fill="#1C60C4"/>
<path d="M38.2136 18.6198C40.2238 18.1813 40.2781 20.6256 41.0769 21.9433C41.5892 22.7856 42.2296 23.4259 43.0719 23.9383C43.9337 24.4614 45.9547 24.8825 46.289 25.6575C47.2202 27.8153 44.3874 28.0041 43.0719 28.803C42.2296 29.3153 41.5892 29.9557 41.0769 30.7979C40.5646 31.6402 40.1326 33.6807 39.3576 34.015C37.1999 34.9463 37.011 32.1134 36.2122 30.7979C35.6999 29.9557 35.0595 29.3153 34.2172 28.803C33.3749 28.2907 31.3344 27.8587 31.0001 27.0837C30.0688 24.926 32.9017 24.7371 34.2172 23.9383C35.1181 23.3912 35.7476 22.7291 36.2751 21.8174C36.8265 20.8644 37.1348 18.8543 38.2115 18.6198H38.2136ZM38.8323 23.9013C38.5414 23.8297 38.5284 23.9469 38.3721 24.1011C37.6753 24.7979 37.1326 25.7726 36.1774 26.2762L38.5523 28.8377L40.5407 26.8341L41.1138 26.5562V26.2762C40.2998 25.6184 39.2339 24.8782 38.8323 23.9013Z" fill="#1C60C4"/>
<path d="M7.82265 40.0822C9.03612 39.8174 9.67868 40.5056 9.78288 41.6496C10.3994 48.4029 9.29878 56.0853 9.77853 62.9363C9.55711 64.851 6.92828 64.9747 6.7264 62.7518C6.1099 55.9985 7.20831 48.316 6.73074 41.465C6.74159 40.8377 7.19964 40.219 7.82265 40.0822Z" fill="#1C60C4"/>
<path d="M7.82263 67.4364C8.47603 67.2931 9.21844 67.4733 9.56142 68.0854C9.86316 68.6238 9.88487 71.7107 9.73292 72.3923C9.40079 73.8814 7.00423 73.8771 6.74591 72.2316C6.56139 71.0551 6.37037 67.7533 7.82263 67.4364Z" fill="#1C60C4"/>
<path d="M70.8797 14.252C73.4651 13.4813 73.2394 18.1572 72.2603 18.8605C69.4665 20.8664 68.9781 14.8185 70.8797 14.252Z" fill="#1C60C4"/>
<path d="M26.0572 62.8779C27.1144 62.6478 27.8894 63.2035 28.0131 64.2607C28.1889 65.7607 28.2215 70.7969 27.9979 72.2318C27.7352 73.912 25.1889 73.988 24.9653 72.0581C24.7895 70.5473 24.7547 65.5306 24.9805 64.087C25.0673 63.5248 25.4885 63.0038 26.0572 62.8779Z" fill="#1C60C4"/>
</g>
<defs>
<clipPath id="clip0_28_342">
<rect width="85.7405" height="85.7405" fill="white" transform="translate(0.977097 0.381592)"/>
</clipPath>
</defs>
</svg>
