<svg width="84" height="84" viewBox="0 0 84 84" fill="none" xmlns="http://www.w3.org/2000/svg">
<path d="M80.0625 63H27.5625C26.5182 63 25.5167 63.4148 24.7783 64.1533C24.0398 64.8917 23.625 65.8932 23.625 66.9375C23.625 67.9818 24.0398 68.9833 24.7783 69.7217C25.5167 70.4602 26.5182 70.875 27.5625 70.875H55.65C58.8119 73.5105 62.8224 74.9095 66.9375 74.8125C74.8978 74.8125 81.375 70.1019 81.375 64.3125C81.375 63.9644 81.2367 63.6306 80.9906 63.3844C80.7444 63.1383 80.4106 63 80.0625 63ZM66.9375 72.1875C63.3252 72.3106 59.8042 71.0388 57.1042 68.6359C56.9824 68.5136 56.8375 68.4166 56.6781 68.3504C56.5186 68.2841 56.3477 68.25 56.175 68.25H27.5625C27.2144 68.25 26.8806 68.1117 26.6344 67.8656C26.3883 67.6194 26.25 67.2856 26.25 66.9375C26.25 66.5894 26.3883 66.2556 26.6344 66.0094C26.8806 65.7633 27.2144 65.625 27.5625 65.625H78.5859C77.6462 69.3446 72.7808 72.1875 66.9375 72.1875Z" fill="#1C60C4"/>
<path d="M64.3125 17.0625H55.4925L42.6694 9.37125C42.4668 9.25104 42.2356 9.18757 42 9.1875H7.875C6.48261 9.1875 5.14726 9.74062 4.16269 10.7252C3.17812 11.7098 2.625 13.0451 2.625 14.4375V38.0625C2.625 39.4549 3.17812 40.7902 4.16269 41.7748C5.14726 42.7594 6.48261 43.3125 7.875 43.3125H42C42.2356 43.3124 42.4668 43.249 42.6694 43.1287L55.4925 35.4375H64.3125C67.0294 35.4375 68.25 30.8175 68.25 26.25C68.25 21.6825 67.0294 17.0625 64.3125 17.0625ZM15.75 11.8125H18.3619L18.375 18.375H21L20.9869 11.8125H22.3125V14.4375H24.9375V11.8125H27.5494L27.5625 18.375H30.1875L30.1744 11.8125H32.8125V21H15.75V11.8125ZM53.8125 33.3769L41.6325 40.6875H7.875C7.17945 40.6854 6.51297 40.4082 6.02114 39.9164C5.52931 39.4245 5.25208 38.7581 5.25 38.0625V27.8775C7.58157 27.916 9.89981 28.2377 12.1538 28.8356C15.0356 29.5926 18.0077 29.9503 20.9869 29.8988C23.9704 29.9512 26.947 29.5934 29.8331 28.8356C32.5184 28.1333 35.2873 27.8021 38.0625 27.8512C40.8376 27.804 43.6062 28.1352 46.2919 28.8356C48.7476 29.484 51.2729 29.8322 53.8125 29.8725V33.3769ZM53.8125 27.2475C51.4767 27.2078 49.1543 26.8861 46.8956 26.2894C44.0142 25.5304 41.0418 25.1726 38.0625 25.2262C35.079 25.1738 32.1024 25.5316 29.2162 26.2894C26.5309 26.9917 23.7621 27.3229 20.9869 27.2738C18.216 27.3221 15.4516 26.9909 12.7706 26.2894C10.3149 25.641 7.78958 25.2928 5.25 25.2525V14.4375C5.25208 13.7419 5.52931 13.0755 6.02114 12.5836C6.51297 12.0918 7.17945 11.8146 7.875 11.8125H13.125V22.3125C13.125 22.6606 13.2633 22.9944 13.5094 23.2406C13.7556 23.4867 14.0894 23.625 14.4375 23.625H34.125C34.4731 23.625 34.8069 23.4867 35.0531 23.2406C35.2992 22.9944 35.4375 22.6606 35.4375 22.3125V11.8125H41.6325L53.8125 19.1231V27.2475ZM61.425 32.8125H56.4375V19.6875H61.425C60.6797 21.7932 60.3239 24.0169 60.375 26.25C60.3239 28.4831 60.6797 30.7068 61.425 32.8125ZM64.3125 32.6944C63.8269 32.0775 63 29.8725 63 26.25C63 22.6275 63.8269 20.4225 64.3125 19.8056C64.7981 20.4225 65.625 22.6275 65.625 26.25C65.625 29.8725 64.7981 32.0775 64.3125 32.6944Z" fill="#1C60C4"/>
<path d="M67.2263 38.5548C66.5254 39.4289 60.375 47.2173 60.375 51.1876C60.375 53.2762 61.2047 55.2792 62.6815 56.7561C64.1584 58.2329 66.1614 59.0626 68.25 59.0626C70.3386 59.0626 72.3416 58.2329 73.8185 56.7561C75.2953 55.2792 76.125 53.2762 76.125 51.1876C76.125 47.2173 69.9746 39.4289 69.2737 38.5548C69.1465 38.4082 68.9892 38.2907 68.8126 38.2101C68.636 38.1296 68.4441 38.0879 68.25 38.0879C68.0559 38.0879 67.864 38.1296 67.6874 38.2101C67.5108 38.2907 67.3535 38.4082 67.2263 38.5548ZM73.5 51.1876C73.5 52.58 72.9469 53.9153 71.9623 54.8999C70.9777 55.8845 69.6424 56.4376 68.25 56.4376C66.8576 56.4376 65.5223 55.8845 64.5377 54.8999C63.5531 53.9153 63 52.58 63 51.1876C63 49.1913 65.898 44.6619 68.25 41.521C70.602 44.6619 73.5 49.1913 73.5 51.1876Z" fill="#1C60C4"/>
<path d="M69.5625 49.875H72.1875V52.5H69.5625V49.875Z" fill="#1C60C4"/>
</svg>
