<svg width="82" height="82" viewBox="0 0 82 82" fill="none" xmlns="http://www.w3.org/2000/svg">
<g clip-path="url(#clip0_28_401)">
<path d="M47.8775 40.3301H80.6327C81.3874 40.3301 82 40.9427 82 41.6974C82 42.452 81.3874 43.0646 80.6327 43.0646H47.8775C47.1214 43.0646 46.5102 42.452 46.5102 41.6974C46.5102 40.9425 47.1227 40.3301 47.8775 40.3301Z" fill="#1C60C4"/>
<path d="M13.5143 27.9166C21.7452 19.6762 31.1368 14.3521 37.4413 14.3521C39.6452 14.3521 41.3994 14.9879 42.6533 16.2443C47.5535 21.1487 42.4318 33.9612 30.9948 45.412C22.7639 53.6525 13.3722 58.9764 7.06778 58.9764C4.8624 58.9764 3.10819 58.3393 1.85448 57.0842C-3.04444 52.18 2.07726 39.3675 13.5143 27.9166ZM3.78903 55.1523C4.5123 55.8756 5.61563 56.242 7.06763 56.242C12.5955 56.242 21.4348 51.1135 29.0599 43.4802C39.9433 32.5846 43.9397 21.4004 40.7199 18.1765C39.9966 17.4532 38.8933 17.0868 37.4413 17.0868C31.9122 17.0868 23.0742 22.2153 15.449 29.8486C4.56564 40.7443 0.56921 51.9284 3.78903 55.1523Z" fill="#1C60C4"/>
<path d="M1.85572 55.1512C2.39033 54.618 3.25583 54.6166 3.78899 55.1526C4.51227 55.8759 5.6156 56.2423 7.06759 56.2423C12.5955 56.2423 21.4347 51.1138 29.0599 43.4805C39.9432 32.5849 43.9397 21.4007 40.7199 18.1768C40.1867 17.6422 40.1867 16.7767 40.7213 16.2435C41.2559 15.7103 42.1214 15.7089 42.6546 16.2449C42.6558 16.2464 42.6587 16.2491 42.6615 16.2518L51.3982 24.9981C56.2972 29.9024 51.1753 42.7149 39.7382 54.1657C31.2723 62.64 22.0036 67.6482 15.7744 67.6482C13.7318 67.6482 12.0146 67.1094 10.7607 65.9774C10.7046 65.935 10.65 65.89 10.5994 65.8379L1.85444 57.0848C1.32111 56.5499 1.32111 55.6844 1.85572 55.1512ZM12.4178 63.7922C12.4534 63.8196 12.4875 63.851 12.5218 63.8824C15.8087 67.0557 26.9996 63.0497 37.8037 52.2347C48.6871 41.339 52.6835 30.155 49.4637 26.931L44.4978 21.9583C44.2244 28.1573 39.2571 37.1403 30.9949 45.4134C22.991 53.4255 13.8892 58.6812 7.59708 58.9657L12.4178 63.7922Z" fill="#1C60C4"/>
<path d="M1.853 55.1525L40.7186 16.2446C41.2517 15.71 42.1172 15.71 42.6518 16.2433C43.1864 16.7765 43.1865 17.642 42.6533 18.1766L3.78915 57.0845C3.52121 57.3511 3.1711 57.485 2.82115 57.485C2.47121 57.485 2.12254 57.3524 1.85444 57.0857C1.31983 56.5526 1.31983 55.6871 1.853 55.1525Z" fill="#1C60C4"/>
<path d="M39.5331 50.4313C46.0386 43.4173 50.2511 35.8618 50.5259 30.7155C50.5642 30.0004 51.1467 29.4371 51.8618 29.4208L52.2951 29.4099C52.6233 29.4003 52.9528 29.3921 53.2878 29.3921C69.3885 29.3921 82 34.7968 82 41.6974C82 48.5979 69.3885 54.0026 53.2876 54.0026C48.7087 54.0026 44.3226 53.5638 40.2509 52.6983C39.7697 52.5971 39.3814 52.243 39.2323 51.774C39.0832 51.3051 39.1982 50.7923 39.5331 50.4313ZM53.2876 51.2681C68.5968 51.2681 79.2655 46.2242 79.2655 41.6974C79.2655 37.1703 68.5968 32.1266 53.2876 32.1266C53.2343 32.1266 53.1797 32.1266 53.1277 32.1266C52.3688 37.2908 48.6937 44.0546 43.17 50.4655C46.3735 50.992 49.8258 51.2681 53.2876 51.2681Z" fill="#1C60C4"/>
<path d="M29.8886 58.9631C32.6135 57.0299 35.2769 54.7657 37.805 52.2349C38.4011 51.6373 38.9727 51.0358 39.5333 50.4315C39.86 50.0788 40.3495 49.9228 40.8198 50.0241C44.6495 50.8375 48.9605 51.2683 53.2878 51.2683C68.597 51.2683 79.2656 46.2245 79.2656 41.6976C79.2656 40.9429 79.8782 40.3303 80.6329 40.3303C81.3876 40.3303 82.0002 40.9429 82.0002 41.6976V54.0029C82.0002 60.9034 69.3887 66.3081 53.2878 66.3081C44.0315 66.3081 35.3194 64.4186 29.9831 61.2534C29.5852 61.0168 29.3336 60.5958 29.3144 60.1336C29.2952 59.6713 29.5112 59.2311 29.8886 58.9631ZM53.2877 63.5734C68.5969 63.5734 79.2655 58.5296 79.2655 54.0027V47.027C74.7085 51.1876 64.9067 54.0027 53.2877 54.0027C48.9918 54.0027 44.8667 53.6172 41.0098 52.8556C40.5955 53.2945 40.173 53.732 39.7383 54.1669C37.6519 56.256 35.4738 58.1729 33.2439 59.8834C38.2424 62.213 45.5327 63.5734 53.2877 63.5734Z" fill="#1C60C4"/>
</g>
<defs>
<clipPath id="clip0_28_401">
<rect width="82" height="82" fill="white" transform="matrix(-1 0 0 1 82 0)"/>
</clipPath>
</defs>
</svg>
