<svg width="15" height="12" viewBox="0 0 15 12" fill="none" xmlns="http://www.w3.org/2000/svg">
<path d="M12.732 2.90625C12.732 3.04297 12.732 3.15234 12.732 3.28906C12.732 7.08984 9.86094 11.4375 4.58359 11.4375C2.94297 11.4375 1.43906 10.9727 0.18125 10.1523C0.4 10.1797 0.61875 10.207 0.864844 10.207C2.20469 10.207 3.43516 9.74219 4.41953 8.97656C3.16172 8.94922 2.09531 8.12891 1.73984 6.98047C1.93125 7.00781 2.09531 7.03516 2.28672 7.03516C2.53281 7.03516 2.80625 6.98047 3.025 6.92578C1.7125 6.65234 0.728125 5.50391 0.728125 4.10938V4.08203C1.11094 4.30078 1.57578 4.41016 2.04063 4.4375C1.24766 3.91797 0.755469 3.04297 0.755469 2.05859C0.755469 1.51172 0.892188 1.01953 1.13828 0.609375C2.56016 2.33203 4.69297 3.48047 7.07188 3.61719C7.01719 3.39844 6.98984 3.17969 6.98984 2.96094C6.98984 1.375 8.275 0.0898438 9.86094 0.0898438C10.6813 0.0898438 11.4195 0.417969 11.9664 0.992188C12.5953 0.855469 13.2242 0.609375 13.7711 0.28125C13.5523 0.964844 13.1148 1.51172 12.5133 1.86719C13.0875 1.8125 13.6617 1.64844 14.1539 1.42969C13.7711 2.00391 13.2789 2.49609 12.732 2.90625Z" fill="white"/>
</svg>
