<svg width="18" height="18" viewBox="0 0 18 18" fill="none" xmlns="http://www.w3.org/2000/svg">
<path d="M17.081 4.78218C16.8865 4.05924 16.3166 3.48936 15.5937 3.2947C14.2732 2.93338 8.991 2.93338 8.991 2.93338C8.991 2.93338 3.70902 2.93338 2.3885 3.281C1.67957 3.47546 1.09568 4.05935 0.901222 4.78218C0.553711 6.1026 0.553711 8.84097 0.553711 8.84097C0.553711 8.84097 0.553711 11.5932 0.901222 12.8998C1.09589 13.6226 1.66566 14.1925 2.3886 14.3871C3.72292 14.7486 8.99121 14.7486 8.99121 14.7486C8.99121 14.7486 14.2732 14.7486 15.5937 14.4009C16.3167 14.2064 16.8865 13.6365 17.0812 12.9137C17.4286 11.5932 17.4286 8.85488 17.4286 8.85488C17.4286 8.85488 17.4425 6.1026 17.081 4.78218ZM7.30927 11.3708V6.31117L11.7017 8.84097L7.30927 11.3708Z" fill="white"/>
</svg>
